HIERARCHY
ROOT Hips
{
 OFFSET 0.000000 0.000000 0.000000
 CHANNELS 6 Xposition Yposition Zposition Yrotation Xrotation Zrotation
 JOINT Chest
 {
  OFFSET 0.000000 9.585900 0.002600
  CHANNELS 3 Yrotation Xrotation Zrotation
  JOINT Chest2
  {
   OFFSET 0.000000 9.601200 -0.005300
   CHANNELS 3 Yrotation Xrotation Zrotation
   JOINT Chest3
   {
    OFFSET 0.000000 9.561800 0.000000
    CHANNELS 3 Yrotation Xrotation Zrotation
    JOINT Chest4
    {
     OFFSET 0.000000 9.552100 0.000000
     CHANNELS 3 Yrotation Xrotation Zrotation
     JOINT Neck
     {
      OFFSET 0.000000 14.453000 0.000000
      CHANNELS 3 Yrotation Xrotation Zrotation
      JOINT Head
      {
       OFFSET 0.000000 8.936500 -0.011300
       CHANNELS 3 Yrotation Xrotation Zrotation
       End Site
       {
        OFFSET 0.000000 17.073600 -0.006000
       }
      }
     }
     JOINT RightCollar
     {
      OFFSET -2.921100 9.558500 0.000000
      CHANNELS 3 Yrotation Xrotation Zrotation
      JOINT RightShoulder
      {
       OFFSET -13.519700 0.000000 0.000000
       CHANNELS 3 Yrotation Xrotation Zrotation
       JOINT RightElbow
       {
        OFFSET 0.000000 -29.696600 0.000000
        CHANNELS 3 Yrotation Xrotation Zrotation
        JOINT RightWrist
        {
         OFFSET 0.000000 -24.004700 0.000000
         CHANNELS 3 Yrotation Xrotation Zrotation
         End Site
         {
          OFFSET 0.000000 -17.728500 0.000000
         }
        }
       }
      }
     }
     JOINT LeftCollar
     {
      OFFSET 2.921100 9.558500 0.000000
      CHANNELS 3 Yrotation Xrotation Zrotation
      JOINT LeftShoulder
      {
       OFFSET 13.519700 0.000000 0.000000
       CHANNELS 3 Yrotation Xrotation Zrotation
       JOINT LeftElbow
       {
        OFFSET 0.000000 -29.696600 0.000000
        CHANNELS 3 Yrotation Xrotation Zrotation
        JOINT LeftWrist
        {
         OFFSET 0.000000 -24.004700 0.000000
         CHANNELS 3 Yrotation Xrotation Zrotation
         End Site
         {
          OFFSET 0.000000 -17.728500 0.000000
         }
        }
       }
      }
     }
    }
   }
  }
 }
 JOINT RightHip
 {
  OFFSET -7.771700 -0.012900 -0.001300
  CHANNELS 3 Yrotation Xrotation Zrotation
  JOINT RightKnee
  {
   OFFSET 0.000000 -40.869800 0.001200
   CHANNELS 3 Yrotation Xrotation Zrotation
   JOINT RightAnkle
   {
    OFFSET 0.000000 -39.717900 0.002100
    CHANNELS 3 Yrotation Xrotation Zrotation
    JOINT RightToe
    {
     OFFSET 0.000000 -4.965400 11.033500
     CHANNELS 3 Yrotation Xrotation Zrotation
     End Site
     {
      OFFSET 0.000000 -1.423100 5.872300
     }
    }
   }
  }
 }
 JOINT LeftHip
 {
  OFFSET 7.771700 -0.012900 -0.001300
  CHANNELS 3 Yrotation Xrotation Zrotation
  JOINT LeftKnee
  {
   OFFSET 0.000000 -40.869800 0.001200
   CHANNELS 3 Yrotation Xrotation Zrotation
   JOINT LeftAnkle
   {
    OFFSET 0.000000 -39.717900 0.002100
    CHANNELS 3 Yrotation Xrotation Zrotation
    JOINT LeftToe
    {
     OFFSET 0.000000 -4.965400 11.033500
     CHANNELS 3 Yrotation Xrotation Zrotation
     End Site
     {
      OFFSET 0.000000 -1.423100 5.872300
     }
    }
   }
  }
 }
}
MOTION
Frames: 7
Frame Time: 0.008333
-48.029323 50.399476 2.226738 166.122300 -10.406574 -0.939021 2.853877 6.281657 0.790745 0.125125 0.268924 -0.004213 0.219655 0.472274 -0.007106 2.766217 6.076699 0.062806 0.477191 20.951696 1.182162 0.417221 3.117924 2.066936 0.566573 5.361329 0.223466 -6.206283 -9.560678 -5.623247 -28.323559 -69.896849 53.637372 0.957680 4.798561 -17.239753 -5.540760 2.540405 1.327687 20.697812 -3.418651 1.070695 20.741129 -85.909322 -43.466961 -4.818316 12.341917 4.391171 -1.068620 -70.393717 -4.169180 -112.220568 80.186637 -111.708611 -2.092250 -14.117724 1.994208 -0.271394 0.780965 -0.136496 -10.761715 -74.157259 24.907952 106.718153 79.036147 103.081275 -16.823033 -20.376533 0.280868 -0.231312 -0.970992 -0.099864
-48.034925 50.397797 2.227212 166.245308 -10.437431 -0.963602 2.859750 6.293837 0.793627 0.125970 0.270263 -0.004718 0.221237 0.474464 -0.007914 2.808555 6.087816 0.044605 0.415741 20.992065 1.207988 0.349716 3.191212 2.101317 0.515770 5.384992 0.230987 -6.271746 -9.557787 -5.561090 -28.216345 -69.562692 53.463652 0.663544 4.307632 -17.239239 -5.558074 2.518100 1.357003 20.573393 -3.421453 1.118710 20.875017 -85.896323 -43.709556 -4.869007 12.329328 4.251309 -1.213674 -70.358502 -4.176747 -112.399575 80.200777 -111.876923 -2.080682 -14.136995 1.979714 -0.276579 0.770544 -0.135369 -10.944390 -74.125888 24.942412 106.578687 79.025257 102.939697 -16.832242 -20.341824 0.255307 -0.236921 -0.972679 -0.093815
-48.043329 50.395970 2.221818 166.407610 -10.496695 -0.966784 2.827795 6.338027 0.772159 0.127329 0.271913 -0.005251 0.223597 0.477242 -0.008874 2.862414 6.102007 0.027431 0.348303 21.029979 1.231607 0.279060 3.261827 2.134841 0.453646 5.401704 0.237652 -6.251927 -9.533205 -5.496343 -28.164401 -69.234243 53.237129 0.359191 3.795118 -17.155248 -5.584763 2.482192 1.383279 20.424435 -3.406328 1.165440 21.060311 -85.878273 -44.001351 -4.903418 12.311734 4.140835 -1.337136 -70.293074 -4.264796 -112.706452 80.207619 -112.168981 -2.066034 -14.196703 1.958075 -0.274972 0.774631 -0.134128 -11.113936 -74.066885 24.895754 106.428201 78.988796 102.775721 -16.830473 -20.286453 0.229324 -0.256123 -0.994733 -0.099658
-48.050127 50.392369 2.222919 166.506892 -10.518821 -0.973197 2.860178 6.345501 0.765279 0.129035 0.273815 -0.005848 0.226475 0.480553 -0.009967 2.887066 6.118728 0.015693 0.310648 21.058479 1.244022 0.196788 3.276771 2.187386 0.423211 5.411113 0.237952 -6.235491 -9.507940 -5.428135 -28.069388 -68.897556 52.950248 0.045541 3.270849 -16.978778 -5.577135 2.435374 1.400112 20.287144 -3.411053 1.222998 21.227558 -85.813898 -44.311159 -4.914419 12.286639 4.074636 -1.413920 -70.268239 -4.303867 -112.808493 80.211255 -112.269140 -2.080154 -14.217856 1.961775 -0.272011 0.774823 -0.133453 -11.201493 -74.045067 24.861168 106.260175 78.974805 102.610614 -16.876457 -20.247503 0.213025 -0.207399 -0.995911 -0.089212
-48.057647 50.388707 2.221559 166.592838 -10.551938 -0.965718 2.905777 6.364798 0.747553 0.130922 0.275940 -0.006536 0.229672 0.484254 -0.011158 2.914168 6.137519 0.002809 0.274422 21.076714 1.257476 0.132030 3.334769 2.212405 0.396161 5.415749 0.244840 -6.257131 -9.492212 -5.357483 -27.879685 -68.552118 52.589116 -0.272857 2.740238 -16.701076 -5.565369 2.383733 1.419879 20.198224 -3.454589 1.306940 21.429050 -85.678603 -44.725660 -4.923047 12.254626 4.122261 -1.459020 -70.231453 -4.408664 -113.009059 80.252507 -112.464115 -2.010540 -14.247273 1.964735 -0.336992 0.779010 -0.163166 -11.197438 -74.015706 24.756413 106.114038 78.967799 102.466188 -16.902048 -20.202413 0.191825 -0.171446 -1.004665 -0.070500
-48.063448 50.385904 2.214851 166.676633 -10.615982 -0.956415 2.956871 6.414448 0.729420 0.132959 0.278286 -0.007284 0.233171 0.488292 -0.012402 2.943185 6.158095 -0.010435 0.240446 21.090390 1.272034 0.072627 3.376014 2.238697 0.370612 5.417265 0.257783 -6.288023 -9.481740 -5.284300 -27.599290 -68.215155 52.128511 -0.590520 2.207171 -16.318980 -5.552219 2.329690 1.443685 20.061565 -3.469329 1.383693 21.543487 -85.549123 -45.020622 -4.883982 12.215830 4.144958 -1.476422 -70.163047 -4.511688 -113.202998 80.265608 -112.642194 -2.004218 -14.286370 1.952047 -0.338114 0.786188 -0.163411 -11.202998 -73.953965 24.644233 106.036219 78.941638 102.378082 -16.885745 -20.155137 0.181552 -0.185687 -1.036599 -0.073126
-48.068795 50.382990 2.208976 166.816613 -10.671161 -0.956679 2.955736 6.456784 0.710768 0.135052 0.280745 -0.008056 0.236845 0.492564 -0.013608 2.973131 6.179462 -0.023278 0.209346 21.106482 1.285959 0.012474 3.406518 2.272793 0.346500 5.416638 0.272132 -6.326141 -9.477984 -5.209616 -27.226309 -67.890507 51.563031 -0.901489 1.677139 -15.847151 -5.539339 2.275459 1.467789 19.916952 -3.487075 1.470516 21.550776 -85.393434 -45.214972 -4.814426 12.181703 4.258058 -1.541758 -70.103167 -4.610990 -113.443139 80.249879 -112.854639 -2.026107 -14.339274 1.919839 -0.297122 0.791446 -0.141822 -11.314395 -73.895493 24.553077 105.833745 78.897770 102.170339 -16.851097 -20.088608 0.153186 -0.225505 -1.054106 -0.088432
